<svg version="1.1" id="Layer_1" xmlns="http://www.w3.org/2000/svg" xmlns:xlink="http://www.w3.org/1999/xlink" x="0px" y="0px" viewBox="0 0 138 100.6" style="enable-background:new 0 0 138 100.6;" xml:space="preserve">
 <style type="text/css">
  .st0{fill:#008F43;}
	.st1{fill:url(#SVGID_1_);}
	.st2{fill:url(#SVGID_00000095317907319734442540000015263902416513537964_);}
 </style>
 <g>
  <path class="st0" d="M131.8,44.9c-2.3-2.2-3.7-5-4.1-8.1C127,29.4,122,23.1,115,20.8c-0.4-0.2-0.9-0.3-1.3-0.5
		c-2.4-1.1-4.5-2.9-5.8-5.2c-3.8-6.9-11.3-10.7-19.1-9.7c-3.1,0.4-6.3-0.3-9-2c-6.5-4.5-15.1-4.5-21.6,0c-2.7,1.7-5.8,2.3-8.9,2
		c-7.8-1-15.3,2.9-19.1,9.7c-1.6,2.7-4.1,4.8-7.1,5.7c-7,2.4-12,8.6-12.7,15.9c-0.4,3.1-1.9,6-4.1,8.1C2.2,48.7,0,54.1,0,59.6v0.3
		c0.1,11.3,9.3,20.4,20.7,20.4h29.7c2.8,0,5.1,2.3,5.1,5.1v1.2c0,2.7-2,5-4.7,5.4l-24,4.1c-0.8,0.1-1.5,0.7-1.6,1.6v3h87.8v-3
		c-0.1-0.9-0.8-1.5-1.6-1.6l-24.2-4.1c-2.7-0.4-4.7-2.6-4.7-5.4v-1.2c0-2.8,2.3-5.1,5.1-5.1h29.8c11.4,0,20.7-9.2,20.7-20.6
		C138,54.1,135.8,48.7,131.8,44.9L131.8,44.9z">
  </path>
  <linearGradient id="SVGID_1_" gradientUnits="userSpaceOnUse" x1="51.8687" y1="105.48" x2="50.2607" y2="101.7226" gradientTransform="matrix(40.7692 0 0 -21.4818 -2028.2358 2261.8813)">
   <stop offset="0" style="stop-color:#6FB92C">
   </stop>
   <stop offset="0.36" style="stop-color:#42A835">
   </stop>
   <stop offset="0.79" style="stop-color:#12963F">
   </stop>
   <stop offset="1" style="stop-color:#008F43">
   </stop>
  </linearGradient>
  <path class="st1" d="M42.3,30.9c25.5-11.4,51.4-14.7,71.3-10.6c-2.4-1.1-4.5-2.9-5.8-5.2c-3.8-6.9-11.3-10.7-19.1-9.7
		c-3.1,0.4-6.3-0.3-9-2c-6.5-4.5-15.1-4.5-21.6,0c-2.7,1.7-5.8,2.3-8.9,2c-7.8-1-15.3,2.9-19.1,9.7c-1.6,2.7-4.1,4.8-7.1,5.7
		c-7,2.4-12,8.6-12.7,15.9c-0.4,3.1-1.9,6-4.1,8.1C2.2,48.7,0,54.1,0,59.6v0.3C12.1,47.6,26.5,37.8,42.3,30.9z">
  </path>
  <linearGradient id="SVGID_00000150097232694756649270000003148190695067486892_" gradientUnits="userSpaceOnUse" x1="52.2269" y1="105.8927" x2="50.5128" y2="101.5306" gradientTransform="matrix(45.61 0 0 -22.0605 -2275.1182 2329.5549)">
   <stop offset="0" style="stop-color:#44AF35">
   </stop>
   <stop offset="0.22" style="stop-color:#2DA43A">
   </stop>
   <stop offset="0.51" style="stop-color:#14983F">
   </stop>
   <stop offset="0.78" style="stop-color:#059142">
   </stop>
   <stop offset="1" style="stop-color:#008F43">
   </stop>
  </linearGradient>
  <path style="fill:url(#SVGID_00000150097232694756649270000003148190695067486892_);" d="M64.9,45.9c21.9-9.7,43.9-13.6,62.3-12
		c-1.6-6.2-6.2-11.1-12.2-13.1c-0.4-0.2-0.9-0.3-1.3-0.5c-19.9-4.1-45.8-0.8-71.4,10.6C26.5,37.8,12.1,47.6,0,59.9
		c0.1,10.2,7.7,18.8,17.8,20.2C30.8,65.3,46.8,53.6,64.9,45.9z">
  </path>
  <path class="st0" d="M131.8,44.9c-2.3-2.2-3.7-5-4.1-8.1c-0.1-0.9-0.3-1.9-0.5-2.8c-18.4-1.7-40.5,2.2-62.3,12
		c-18,7.8-34.1,19.5-47,34.2c0.9,0.1,1.9,0.2,2.8,0.2h29.7c2.8,0,5.1,2.3,5.1,5.1v1.2c0,2.7-2,5-4.7,5.4l-24,4.1
		c-0.8,0.1-1.5,0.7-1.6,1.6v3h87.8v-3c-0.1-0.9-0.8-1.5-1.6-1.6l-24.2-4.1c-2.7-0.4-4.7-2.6-4.7-5.4v-1.2c0-2.8,2.3-5.1,5.1-5.1
		h29.8c11.4,0,20.7-9.2,20.7-20.6C138,54.1,135.8,48.7,131.8,44.9L131.8,44.9z">
  </path>
 </g>
</svg>